grf
version=1
nRows=17
nColumns=37
inDegrees=no
endheader
time	ground_force_1_vx	ground_force_1_vy	ground_force_1_vz	ground_force_1_px	ground_force_1_py	ground_force_1_pz	ground_moment_1_mx	ground_moment_1_my	ground_moment_1_mz	ground_force_2_vx	ground_force_2_vy	ground_force_2_vz	ground_force_2_px	ground_force_2_py	ground_force_2_pz	ground_moment_2_mx	ground_moment_2_my	ground_moment_2_mz	ground_force_3_vx	ground_force_3_vy	ground_force_3_vz	ground_force_3_px	ground_force_3_py	ground_force_3_pz	ground_moment_3_mx	ground_moment_3_my	ground_moment_3_mz	ground_force_4_vx	ground_force_4_vy	ground_force_4_vz	ground_force_4_px	ground_force_4_py	ground_force_4_pz	ground_moment_4_mx	ground_moment_4_my	ground_moment_4_mz
      4.92000000	      0.00000000	     -0.00000000	      0.00000000	      0.00000000	      0.00000000	      0.00000000	      0.00000000	      0.00000000	      0.00000000	     -1.84577417	      4.44142866	   -770.74810791	   -250.97615580	  -1084.38000150	      0.00000000	     -0.00000000	      0.00000000	    981.17112962	      0.00000000	     -0.00000000	      0.00000000	      0.00000000	      0.00000000	      0.00000000	      0.00000000	      0.00000000	      0.00000000	    -34.82696773	     16.18791694	     75.69728851	    605.66081182	   -565.95581856	      0.00000000	      0.00000000	     -0.00000000	    -17.53871553
      4.93000000	      0.00000000	     -0.00000000	      0.00000000	      0.00000000	      0.00000000	      0.00000000	      0.00000000	      0.00000000	      0.00000000	     -0.46721625	      2.25582886	   -774.11956787	   -251.36786175	  -1084.51906096	      0.00000000	      0.00000000	      0.00000000	   1151.14021296	      0.00000000	     -0.00000000	      0.00000000	      0.00000000	      0.00000000	      0.00000000	      0.00000000	      0.00000000	      0.00000000	    -34.75828794	     16.01459807	     76.04844666	    604.52844624	   -564.69551894	      0.00000000	      0.00000000	      0.00000000	    -53.58951856
      4.94000000	      0.00000000	     -0.00000000	      0.00000000	      0.00000000	      0.00000000	      0.00000000	      0.00000000	      0.00000000	      0.00000000	      0.15755878	      1.48107338	   -777.67584229	   -252.24417584	  -1084.60767593	      0.00000000	      0.00000000	      0.00000000	   1112.82728753	      0.00000000	     -0.00000000	      0.00000000	      0.00000000	      0.00000000	      0.00000000	      0.00000000	      0.00000000	      0.00000000	    -34.77184918	     16.13222045	     75.10375977	    606.71265963	   -564.56097558	      0.00000000	      0.00000000	     -0.00000000	    -83.94862408
      4.95000000	      0.00000000	     -0.00000000	      0.00000000	      0.00000000	      0.00000000	      0.00000000	      0.00000000	      0.00000000	      0.00000000	     -0.26763153	      2.14595222	   -777.81097412	   -252.60456753	  -1084.75060263	      0.00000000	      0.00000000	      0.00000000	    971.50649008	      0.00000000	     -0.00000000	      0.00000000	      0.00000000	      0.00000000	      0.00000000	      0.00000000	      0.00000000	      0.00000000	    -34.77904370	     16.07697219	     76.15661621	    603.04820818	   -562.28454459	      0.00000000	      0.00000000	     -0.00000000	    -77.78901204
      4.96000000	      0.00000000	     -0.00000000	      0.00000000	      0.00000000	      0.00000000	      0.00000000	      0.00000000	      0.00000000	      0.00000000	     -0.20582691	      3.83959389	   -774.95758057	   -252.88991136	  -1085.92557186	      0.00000000	     -0.00000000	      0.00000000	    717.02740059	      0.00000000	     -0.00000000	      0.00000000	      0.00000000	      0.00000000	      0.00000000	      0.00000000	      0.00000000	      0.00000000	    -35.04033519	     16.20923539	     75.80566406	    603.65454721	   -563.89892466	      0.00000000	      0.00000000	      0.00000000	     15.85660388
      4.97000000	      0.00000000	     -0.00000000	      0.00000000	      0.00000000	      0.00000000	      0.00000000	      0.00000000	      0.00000000	      0.00000000	     -0.16552845	      5.39522362	   -771.42462158	   -252.97999362	  -1086.26241186	      0.00000000	      0.00000000	      0.00000000	    370.51972970	      0.00000000	     -0.00000000	      0.00000000	      0.00000000	      0.00000000	      0.00000000	      0.00000000	      0.00000000	      0.00000000	    -35.07525492	     16.38205263	     76.15661621	    603.49414340	   -565.20842521	      0.00000000	      0.00000000	     -0.00000000	    -74.59894873
      4.98000000	      0.00000000	     -0.00000000	      0.00000000	      0.00000000	      0.00000000	      0.00000000	      0.00000000	      0.00000000	      0.00000000	     -0.34209096	      6.39013529	   -768.79400635	   -253.38393882	  -1087.42586040	      0.00000000	      0.00000000	      0.00000000	    134.63829188	      0.00000000	     -0.00000000	      0.00000000	      0.00000000	      0.00000000	      0.00000000	      0.00000000	      0.00000000	      0.00000000	    -34.88111356	     15.97945232	     74.96665955	    609.32308608	   -564.66592199	      0.00000000	      0.00000000	     -0.00000000	   -117.77958886
      4.99000000	      0.00000000	     -0.00000000	      0.00000000	      0.00000000	      0.00000000	      0.00000000	      0.00000000	      0.00000000	      0.00000000	     -0.17395574	      7.70443583	   -763.68280029	   -252.92103670	  -1087.33567998	      0.00000000	      0.00000000	      0.00000000	      0.67168255	      0.00000000	     -0.00000000	      0.00000000	      0.00000000	      0.00000000	      0.00000000	      0.00000000	      0.00000000	      0.00000000	    -34.75636150	     16.22187918	     75.36177063	    608.08907476	   -563.20862702	      0.00000000	      0.00000000	     -0.00000000	   -163.97971669
      5.00000000	      0.00000000	     -0.00000000	      0.00000000	      0.00000000	      0.00000000	      0.00000000	      0.00000000	      0.00000000	      0.00000000	      0.10859850	      9.54856873	   -758.79943848	   -253.12756502	  -1088.21026530	      0.00000000	      0.00000000	     -0.00000000	   -163.37271427	      0.00000000	     -0.00000000	      0.00000000	      0.00000000	      0.00000000	      0.00000000	      0.00000000	      0.00000000	      0.00000000	    -34.85359815	     15.97919197	     75.27355957	    607.49418069	   -559.88158152	      0.00000000	     -0.00000000	     -0.00000000	   -249.14005501
      5.01000000	      0.00000000	     -0.00000000	      0.00000000	      0.00000000	      0.00000000	      0.00000000	      0.00000000	      0.00000000	      0.00000000	      0.44605255	     10.95181179	   -750.10974121	   -252.95316001	  -1088.72527229	      0.00000000	      0.00000000	     -0.00000000	   -346.15161013	      0.00000000	     -0.00000000	      0.00000000	      0.00000000	      0.00000000	      0.00000000	      0.00000000	      0.00000000	      0.00000000	    -35.01357510	     16.05011674	     75.91186523	    605.01242995	   -563.76826718	      0.00000000	      0.00000000	     -0.00000000	   -112.05551727
      5.02000000	      0.00000000	     -0.00000000	      0.00000000	      0.00000000	      0.00000000	      0.00000000	      0.00000000	      0.00000000	      0.00000000	      0.86508632	     11.85434341	   -744.99578857	   -253.09360019	  -1089.67775934	      0.00000000	      0.00000000	     -0.00000000	   -578.39127128	      0.00000000	     -0.00000000	      0.00000000	      0.00000000	      0.00000000	      0.00000000	      0.00000000	      0.00000000	      0.00000000	    -34.88880015	     16.34732742	     76.26251984	    603.08721375	   -564.07615962	      0.00000000	      0.00000000	      0.00000000	   -169.64883920
      5.03000000	      0.00000000	     -0.00000000	      0.00000000	      0.00000000	      0.00000000	      0.00000000	      0.00000000	      0.00000000	      0.00000000	      0.37549430	     11.83570766	   -738.63891602	   -252.53532796	  -1089.65101464	      0.00000000	     -0.00000000	     -0.00000000	   -790.06425371	      0.00000000	     -0.00000000	      0.00000000	      0.00000000	      0.00000000	      0.00000000	      0.00000000	      0.00000000	      0.00000000	    -34.74545910	     16.07747191	     75.91136169	    602.02761528	   -562.64234775	      0.00000000	      0.00000000	     -0.00000000	     -2.87797804
      5.04000000	      0.00000000	     -0.00000000	      0.00000000	      0.00000000	      0.00000000	      0.00000000	      0.00000000	      0.00000000	      0.00000000	     -0.76597917	     10.91079140	   -733.80139160	   -252.22203779	  -1089.78594867	      0.00000000	      0.00000000	     -0.00000000	   -735.50851208	      0.00000000	     -0.00000000	      0.00000000	      0.00000000	      0.00000000	      0.00000000	      0.00000000	      0.00000000	      0.00000000	    -35.00515607	     16.04164620	     74.68173218	    608.10273824	   -566.68271684	      0.00000000	      0.00000000	     -0.00000000	    -37.46201010
      5.05000000	      0.00000000	     -0.00000000	      0.00000000	      0.00000000	      0.00000000	      0.00000000	      0.00000000	      0.00000000	      0.00000000	     -3.64025998	     10.47243023	   -730.62298584	   -251.70072228	  -1090.07932775	      0.00000000	      0.00000000	     -0.00000000	   -951.93363891	      0.00000000	     -0.00000000	      0.00000000	      0.00000000	      0.00000000	      0.00000000	      0.00000000	      0.00000000	      0.00000000	    -34.80834822	     15.94254417	     76.50756836	    602.23929768	   -562.72826532	      0.00000000	      0.00000000	     -0.00000000	    -62.61805443
      5.06000000	      0.00000000	     -0.00000000	      0.00000000	      0.00000000	      0.00000000	      0.00000000	      0.00000000	      0.00000000	      0.00000000	     -6.62857056	      9.70615482	   -730.30511475	   -251.75841781	  -1090.23078190	      0.00000000	      0.00000000	     -0.00000000	  -1020.43576185	      0.00000000	     -0.00000000	      0.00000000	      0.00000000	      0.00000000	      0.00000000	      0.00000000	      0.00000000	      0.00000000	    -34.65636304	     16.03228109	     76.43859100	    600.62508892	   -562.71849570	      0.00000000	      0.00000000	     -0.00000000	    -21.43994762
      5.07000000	      0.00000000	     -0.00000000	      0.00000000	      0.00000000	      0.00000000	      0.00000000	      0.00000000	      0.00000000	      0.00000000	     -8.43014431	      9.54601574	   -730.87097168	   -251.49669692	  -1090.75906248	      0.00000000	      0.00000000	     -0.00000000	  -1319.38207531	      0.00000000	     -0.00000000	      0.00000000	      0.00000000	      0.00000000	      0.00000000	      0.00000000	      0.00000000	      0.00000000	    -34.59373714	     16.20249097	     76.37184143	    600.67511701	   -563.10624040	      0.00000000	      0.00000000	     -0.00000000	    -60.02878877
      5.08000000	      0.00000000	     -0.00000000	      0.00000000	      0.00000000	      0.00000000	      0.00000000	      0.00000000	      0.00000000	      0.00000000	     -9.71582508	      7.94186163	   -731.04577637	   -251.15122396	  -1090.21188927	      0.00000000	      0.00000000	     -0.00000000	  -1433.25081777	      0.00000000	     -0.00000000	      0.00000000	      0.00000000	      0.00000000	      0.00000000	      0.00000000	      0.00000000	      0.00000000	    -34.96867608	     16.46444626	     77.03816986	    598.02351540	   -560.07472158	      0.00000000	      0.00000000	     -0.00000000	   -313.79916061
